<svg width="22" height="22" viewBox="0 0 22 22" fill="none" xmlns="http://www.w3.org/2000/svg">
<path fill-rule="evenodd" clip-rule="evenodd" d="M11 0C17.0753 0 22 5.04898 22 11.2783C22 16.2601 18.8518 20.4863 14.4837 21.979C13.926 22.0901 13.728 21.7381 13.728 21.4378C13.728 21.066 13.7412 19.8516 13.7412 18.3424C13.7412 17.2908 13.3892 16.6044 12.9943 16.2546C15.4451 15.9752 18.018 15.0215 18.018 10.6898C18.018 9.45776 17.5912 8.45237 16.8861 7.66147C17.0005 7.37877 17.3767 6.23148 16.7772 4.67718C16.7772 4.67718 15.8554 4.37468 13.7555 5.83328C12.8766 5.58358 11.935 5.45818 11 5.45378C10.065 5.45818 9.1245 5.58358 8.2467 5.83328C6.1446 4.37468 5.2217 4.67718 5.2217 4.67718C4.6233 6.23148 4.9995 7.37877 5.1139 7.66147C4.411 8.45237 3.9809 9.45776 3.9809 10.6898C3.9809 15.0105 6.5494 15.9774 8.9925 16.2634C8.6779 16.545 8.393 17.0422 8.2951 17.7715C7.667 18.0597 6.0742 18.558 5.093 16.8343C5.093 16.8343 4.5122 15.7508 3.4067 15.6716C3.4067 15.6716 2.3342 15.6573 3.3319 16.3569C3.3319 16.3569 4.0535 16.7045 4.5529 18.008C4.5529 18.008 5.1986 20.021 8.2588 19.3379C8.2643 20.2806 8.2742 21.1694 8.2742 21.4378C8.2742 21.7359 8.0718 22.0846 7.5229 21.9801C3.1515 20.4885 0 16.2612 0 11.2783C0 5.04898 4.9258 0 11 0Z" fill="#1E2022"/>
</svg>
