<svg width="22" height="22" viewBox="0 0 22 22" fill="none" xmlns="http://www.w3.org/2000/svg">
<path fill-rule="evenodd" clip-rule="evenodd" d="M22 21H17.3846V13.3592C17.3846 11.2642 16.4073 10.0939 14.6546 10.0939C12.7473 10.0939 11.6154 11.3122 11.6154 13.3592V21H7V6.80786H11.6154V8.40393C11.6154 8.40393 13.0623 6 16.3265 6C19.5908 6 22 7.88428 22 11.7838V21ZM2.50051 5C1.11919 5 0 3.8811 0 2.5C0 1.11992 1.11919 0 2.50051 0C3.88081 0 5 1.11992 5 2.5C5 3.8811 3.88081 5 2.50051 5ZM0 22H6V7H0V22Z" fill="#1E2022"/>
</svg>
